<mxfile host="65bd71144e">
    <diagram name="Seite-1" id="lGOQ4ZT6Sw0--DUblUF4">
        <mxGraphModel dx="544" dy="362" grid="1" gridSize="10" guides="1" tooltips="1" connect="1" arrows="1" fold="1" page="0" pageScale="1" pageWidth="827" pageHeight="1169" background="none" math="0" shadow="0">
            <root>
                <mxCell id="0"/>
                <mxCell id="1" parent="0"/>
                <mxCell id="lETu0fl0MlPzrCN2401O-1" value="Scene" style="whiteSpace=wrap;html=1;align=center;fillColor=none;fontColor=#74787D;strokeColor=#74787D;labelBackgroundColor=none;" parent="1" vertex="1">
                    <mxGeometry x="160" y="150" width="80" height="40" as="geometry"/>
                </mxCell>
                <mxCell id="lETu0fl0MlPzrCN2401O-2" value="Set" style="whiteSpace=wrap;html=1;align=center;fillColor=none;fontColor=#74787D;strokeColor=#74787D;labelBackgroundColor=none;" parent="1" vertex="1">
                    <mxGeometry x="280" y="120" width="80" height="40" as="geometry"/>
                </mxCell>
                <mxCell id="lETu0fl0MlPzrCN2401O-7" value="" style="edgeStyle=orthogonalEdgeStyle;fontSize=12;html=1;endArrow=none;startArrow=diamondThin;rounded=0;startFill=0;fontColor=#74787D;strokeColor=#74787D;endFill=0;" parent="1" source="lETu0fl0MlPzrCN2401O-1" target="lETu0fl0MlPzrCN2401O-2" edge="1">
                    <mxGeometry width="100" height="100" relative="1" as="geometry">
                        <mxPoint x="280" y="320" as="sourcePoint"/>
                        <mxPoint x="380" y="220" as="targetPoint"/>
                        <Array as="points">
                            <mxPoint x="270" y="140"/>
                            <mxPoint x="270" y="140"/>
                        </Array>
                    </mxGeometry>
                </mxCell>
                <mxCell id="lETu0fl0MlPzrCN2401O-22" value="1..*" style="edgeLabel;html=1;align=center;verticalAlign=bottom;resizable=0;points=[];fontColor=#74787D;labelBackgroundColor=none;" parent="lETu0fl0MlPzrCN2401O-7" connectable="0" vertex="1">
                    <mxGeometry x="-0.6542" relative="1" as="geometry">
                        <mxPoint x="3" as="offset"/>
                    </mxGeometry>
                </mxCell>
                <mxCell id="lETu0fl0MlPzrCN2401O-12" value="R3Object" style="whiteSpace=wrap;html=1;align=center;fillColor=none;fontColor=#74787D;strokeColor=#74787D;labelBackgroundColor=none;" parent="1" vertex="1">
                    <mxGeometry x="400" y="120" width="80" height="40" as="geometry"/>
                </mxCell>
                <mxCell id="lETu0fl0MlPzrCN2401O-21" value="" style="edgeStyle=orthogonalEdgeStyle;fontSize=12;html=1;endArrow=none;startArrow=diamondThin;rounded=0;startFill=0;fontColor=#74787D;strokeColor=#74787D;endFill=0;entryX=0;entryY=0.25;entryDx=0;entryDy=0;exitX=1;exitY=0.25;exitDx=0;exitDy=0;" parent="1" source="lETu0fl0MlPzrCN2401O-2" target="lETu0fl0MlPzrCN2401O-12" edge="1">
                    <mxGeometry width="100" height="100" relative="1" as="geometry">
                        <mxPoint x="250" y="150" as="sourcePoint"/>
                        <mxPoint x="330" y="150" as="targetPoint"/>
                    </mxGeometry>
                </mxCell>
                <mxCell id="lETu0fl0MlPzrCN2401O-31" value="1" style="edgeLabel;html=1;align=center;verticalAlign=bottom;resizable=0;points=[];fontSize=11;fontFamily=Helvetica;fontColor=#74787D;labelBackgroundColor=none;" parent="lETu0fl0MlPzrCN2401O-21" connectable="0" vertex="1">
                    <mxGeometry x="-0.4011" relative="1" as="geometry">
                        <mxPoint x="-2" as="offset"/>
                    </mxGeometry>
                </mxCell>
                <mxCell id="lETu0fl0MlPzrCN2401O-32" value="*" style="edgeLabel;html=1;align=center;verticalAlign=bottom;resizable=0;points=[];fontSize=11;fontFamily=Helvetica;fontColor=#74787D;labelBackgroundColor=none;" parent="lETu0fl0MlPzrCN2401O-21" connectable="0" vertex="1">
                    <mxGeometry x="0.633" y="1" relative="1" as="geometry">
                        <mxPoint x="-3" y="1" as="offset"/>
                    </mxGeometry>
                </mxCell>
                <mxCell id="lETu0fl0MlPzrCN2401O-23" value="*" style="edgeLabel;html=1;align=center;verticalAlign=bottom;resizable=0;points=[];fontColor=#74787D;labelBackgroundColor=none;labelBorderColor=none;" parent="1" connectable="0" vertex="1">
                    <mxGeometry x="270.0009677419355" y="140" as="geometry"/>
                </mxCell>
                <mxCell id="lETu0fl0MlPzrCN2401O-33" value="" style="edgeStyle=orthogonalEdgeStyle;fontSize=12;html=1;endArrow=none;startArrow=diamondThin;rounded=0;startFill=0;fontColor=#74787D;strokeColor=#74787D;endFill=0;exitX=0.25;exitY=0;exitDx=0;exitDy=0;entryX=0.75;entryY=0;entryDx=0;entryDy=0;" parent="1" source="lETu0fl0MlPzrCN2401O-2" target="lETu0fl0MlPzrCN2401O-2" edge="1">
                    <mxGeometry width="100" height="100" relative="1" as="geometry">
                        <mxPoint x="370" y="150" as="sourcePoint"/>
                        <mxPoint x="360" y="90" as="targetPoint"/>
                        <Array as="points">
                            <mxPoint x="300" y="110"/>
                            <mxPoint x="340" y="110"/>
                        </Array>
                    </mxGeometry>
                </mxCell>
                <mxCell id="lETu0fl0MlPzrCN2401O-34" value="0..1" style="edgeLabel;html=1;align=center;verticalAlign=bottom;resizable=0;points=[];fontSize=11;fontFamily=Helvetica;fontColor=#74787D;labelBackgroundColor=none;" parent="lETu0fl0MlPzrCN2401O-33" connectable="0" vertex="1">
                    <mxGeometry x="-0.4011" relative="1" as="geometry">
                        <mxPoint x="-8" as="offset"/>
                    </mxGeometry>
                </mxCell>
                <mxCell id="lETu0fl0MlPzrCN2401O-43" value="*" style="edgeLabel;html=1;align=center;verticalAlign=bottom;resizable=0;points=[];fontSize=11;fontFamily=Helvetica;fontColor=#74787D;labelBackgroundColor=none;" parent="lETu0fl0MlPzrCN2401O-33" connectable="0" vertex="1">
                    <mxGeometry x="0.5763" relative="1" as="geometry">
                        <mxPoint x="3" as="offset"/>
                    </mxGeometry>
                </mxCell>
                <mxCell id="lETu0fl0MlPzrCN2401O-36" value="" style="edgeStyle=orthogonalEdgeStyle;fontSize=12;html=1;endArrow=none;startArrow=diamondThin;rounded=0;startFill=0;fontColor=#74787D;strokeColor=#74787D;endFill=0;exitX=0.25;exitY=0;exitDx=0;exitDy=0;entryX=0.75;entryY=0;entryDx=0;entryDy=0;" parent="1" source="lETu0fl0MlPzrCN2401O-12" target="lETu0fl0MlPzrCN2401O-12" edge="1">
                    <mxGeometry width="100" height="100" relative="1" as="geometry">
                        <mxPoint x="380" y="109.99" as="sourcePoint"/>
                        <mxPoint x="430" y="110" as="targetPoint"/>
                        <Array as="points">
                            <mxPoint x="440" y="110"/>
                            <mxPoint x="480" y="110"/>
                        </Array>
                    </mxGeometry>
                </mxCell>
                <mxCell id="lETu0fl0MlPzrCN2401O-37" value="0..1" style="edgeLabel;html=1;align=center;verticalAlign=bottom;resizable=0;points=[];fontSize=11;fontFamily=Helvetica;fontColor=#74787D;labelBackgroundColor=none;" parent="lETu0fl0MlPzrCN2401O-36" connectable="0" vertex="1">
                    <mxGeometry x="-0.4011" relative="1" as="geometry">
                        <mxPoint x="-8" as="offset"/>
                    </mxGeometry>
                </mxCell>
                <mxCell id="lETu0fl0MlPzrCN2401O-44" value="*" style="edgeLabel;html=1;align=center;verticalAlign=bottom;resizable=0;points=[];fontSize=11;fontFamily=Helvetica;fontColor=#74787D;labelBackgroundColor=none;" parent="lETu0fl0MlPzrCN2401O-36" connectable="0" vertex="1">
                    <mxGeometry x="0.6667" y="1" relative="1" as="geometry">
                        <mxPoint x="-1" as="offset"/>
                    </mxGeometry>
                </mxCell>
                <mxCell id="lETu0fl0MlPzrCN2401O-40" value="" style="edgeStyle=orthogonalEdgeStyle;fontSize=12;html=1;endArrow=none;startArrow=none;rounded=0;startFill=0;fontColor=#74787D;strokeColor=#74787D;endFill=0;entryX=0;entryY=0.75;entryDx=0;entryDy=0;exitX=1;exitY=0.75;exitDx=0;exitDy=0;" parent="1" source="lETu0fl0MlPzrCN2401O-2" target="lETu0fl0MlPzrCN2401O-12" edge="1">
                    <mxGeometry width="100" height="100" relative="1" as="geometry">
                        <mxPoint x="363" y="148" as="sourcePoint"/>
                        <mxPoint x="403" y="148" as="targetPoint"/>
                    </mxGeometry>
                </mxCell>
                <mxCell id="lETu0fl0MlPzrCN2401O-41" value="*" style="edgeLabel;html=1;align=center;verticalAlign=bottom;resizable=0;points=[];fontSize=11;fontFamily=Helvetica;fontColor=#74787D;labelBackgroundColor=none;" parent="lETu0fl0MlPzrCN2401O-40" connectable="0" vertex="1">
                    <mxGeometry x="-0.4011" relative="1" as="geometry">
                        <mxPoint x="-2" as="offset"/>
                    </mxGeometry>
                </mxCell>
                <mxCell id="lETu0fl0MlPzrCN2401O-42" value="*" style="edgeLabel;html=1;align=center;verticalAlign=bottom;resizable=0;points=[];fontSize=11;fontFamily=Helvetica;fontColor=#74787D;labelBackgroundColor=none;" parent="lETu0fl0MlPzrCN2401O-40" connectable="0" vertex="1">
                    <mxGeometry x="0.633" y="1" relative="1" as="geometry">
                        <mxPoint x="-3" y="1" as="offset"/>
                    </mxGeometry>
                </mxCell>
            </root>
        </mxGraphModel>
    </diagram>
</mxfile>